<?xml version="1.0" encoding="UTF-8"?>
<svg xmlns="http://www.w3.org/2000/svg" xmlns:xlink="http://www.w3.org/1999/xlink" width="60px" height="60px" viewBox="0 0 60 60" version="1.1">
<g id="surface1">
<path style=" stroke:none;fill-rule:nonzero;fill:rgb(0%,0%,0%);fill-opacity:1;" d="M 7.199219 1.898438 C 7.796875 1.800781 8.402344 1.996094 8.828125 2.421875 L 11.25 4.847656 L 13.671875 2.421875 C 14.023438 2.070312 14.5 1.871094 15 1.871094 C 15.5 1.871094 15.976562 2.070312 16.328125 2.421875 L 18.75 4.847656 L 21.171875 2.421875 C 21.523438 2.070312 22 1.871094 22.5 1.871094 C 23 1.871094 23.476562 2.070312 23.828125 2.421875 L 26.25 4.847656 L 28.671875 2.421875 C 29.023438 2.070312 29.5 1.871094 30 1.871094 C 30.5 1.871094 30.976562 2.070312 31.328125 2.421875 L 33.75 4.847656 L 36.171875 2.421875 C 36.523438 2.070312 37 1.871094 37.5 1.871094 C 38 1.871094 38.476562 2.070312 38.828125 2.421875 L 41.25 4.847656 L 43.671875 2.421875 C 44.023438 2.070312 44.5 1.871094 45 1.871094 C 45.5 1.871094 45.976562 2.070312 46.328125 2.421875 L 48.75 4.847656 L 51.171875 2.421875 C 51.597656 1.996094 52.203125 1.800781 52.800781 1.898438 C 53.394531 1.992188 53.90625 2.371094 54.175781 2.910156 L 56.050781 6.660156 L 56.25 52.5 L 54.175781 57.089844 C 53.90625 57.628906 53.394531 58.003906 52.800781 58.101562 C 52.207031 58.195312 51.601562 58.003906 51.175781 57.578125 L 48.75 55.152344 L 46.328125 57.578125 C 45.976562 57.929688 45.5 58.128906 45 58.128906 C 44.5 58.128906 44.023438 57.929688 43.671875 57.578125 L 41.25 55.152344 L 38.828125 57.578125 C 38.476562 57.929688 38 58.128906 37.5 58.128906 C 37 58.128906 36.523438 57.929688 36.171875 57.578125 L 33.75 55.152344 L 31.328125 57.578125 C 30.976562 57.929688 30.5 58.128906 30 58.128906 C 29.5 58.128906 29.023438 57.929688 28.671875 57.578125 L 26.25 55.152344 L 23.828125 57.578125 C 23.476562 57.929688 23 58.128906 22.5 58.128906 C 22 58.128906 21.523438 57.929688 21.171875 57.578125 L 18.75 55.152344 L 16.328125 57.578125 C 15.976562 57.929688 15.5 58.128906 15 58.128906 C 14.5 58.128906 14.023438 57.929688 13.671875 57.578125 L 11.25 55.152344 L 8.828125 57.578125 C 8.402344 58.003906 7.796875 58.199219 7.199219 58.101562 C 6.605469 58.007812 6.09375 57.628906 5.824219 57.089844 L 3.949219 53.339844 L 3.75 7.5 L 5.824219 2.910156 C 6.09375 2.371094 6.605469 1.996094 7.199219 1.898438 M 8.015625 6.914062 L 7.5 7.941406 L 7.5 52.058594 L 8.015625 53.085938 L 9.925781 51.171875 C 10.660156 50.441406 11.84375 50.441406 12.578125 51.171875 L 15 53.597656 L 17.421875 51.175781 C 17.773438 50.824219 18.25 50.625 18.75 50.625 C 19.25 50.625 19.726562 50.824219 20.078125 51.175781 L 22.5 53.597656 L 24.921875 51.175781 C 25.273438 50.824219 25.75 50.625 26.25 50.625 C 26.75 50.625 27.226562 50.824219 27.578125 51.175781 L 30 53.597656 L 32.421875 51.175781 C 32.773438 50.824219 33.25 50.625 33.75 50.625 C 34.25 50.625 34.726562 50.824219 35.078125 51.175781 L 37.5 53.597656 L 39.921875 51.175781 C 40.273438 50.824219 40.75 50.625 41.25 50.625 C 41.75 50.625 42.226562 50.824219 42.578125 51.175781 L 45 53.597656 L 47.421875 51.175781 C 47.773438 50.824219 48.25 50.625 48.75 50.625 C 49.25 50.625 49.726562 50.824219 50.078125 51.175781 L 51.984375 53.085938 L 52.5 52.058594 L 52.5 7.941406 L 51.984375 6.914062 L 50.074219 8.828125 C 49.339844 9.558594 48.15625 9.558594 47.421875 8.828125 L 45 6.402344 L 42.578125 8.828125 C 42.226562 9.179688 41.75 9.378906 41.25 9.378906 C 40.75 9.378906 40.273438 9.179688 39.921875 8.828125 L 37.5 6.402344 L 35.078125 8.828125 C 34.726562 9.179688 34.25 9.378906 33.75 9.378906 C 33.25 9.378906 32.773438 9.179688 32.421875 8.828125 L 30 6.402344 L 27.578125 8.828125 C 27.226562 9.179688 26.75 9.378906 26.25 9.378906 C 25.75 9.378906 25.273438 9.179688 24.921875 8.828125 L 22.5 6.402344 L 20.078125 8.828125 C 19.726562 9.179688 19.25 9.378906 18.75 9.378906 C 18.25 9.378906 17.773438 9.179688 17.421875 8.828125 L 15 6.402344 L 12.578125 8.828125 C 12.226562 9.179688 11.75 9.378906 11.25 9.378906 C 10.75 9.378906 10.273438 9.179688 9.921875 8.828125 Z M 8.015625 6.914062 "/>
<path style=" stroke:none;fill-rule:nonzero;fill:rgb(0%,0%,0%);fill-opacity:1;" d="M 11.25 16.875 C 11.25 15.839844 12.089844 15 13.125 15 L 35.625 15 C 36.660156 15 37.5 15.839844 37.5 16.875 C 37.5 17.910156 36.660156 18.75 35.625 18.75 L 13.125 18.75 C 12.089844 18.75 11.25 17.910156 11.25 16.875 M 11.25 24.375 C 11.25 23.339844 12.089844 22.5 13.125 22.5 L 35.625 22.5 C 36.660156 22.5 37.5 23.339844 37.5 24.375 C 37.5 25.410156 36.660156 26.25 35.625 26.25 L 13.125 26.25 C 12.089844 26.25 11.25 25.410156 11.25 24.375 M 11.25 31.875 C 11.25 30.839844 12.089844 30 13.125 30 L 35.625 30 C 36.660156 30 37.5 30.839844 37.5 31.875 C 37.5 32.910156 36.660156 33.75 35.625 33.75 L 13.125 33.75 C 12.089844 33.75 11.25 32.910156 11.25 31.875 M 11.25 39.375 C 11.25 38.339844 12.089844 37.5 13.125 37.5 L 35.625 37.5 C 36.660156 37.5 37.5 38.339844 37.5 39.375 C 37.5 40.410156 36.660156 41.25 35.625 41.25 L 13.125 41.25 C 12.089844 41.25 11.25 40.410156 11.25 39.375 M 41.25 16.875 C 41.25 15.839844 42.089844 15 43.125 15 L 46.875 15 C 47.910156 15 48.75 15.839844 48.75 16.875 C 48.75 17.910156 47.910156 18.75 46.875 18.75 L 43.125 18.75 C 42.089844 18.75 41.25 17.910156 41.25 16.875 M 41.25 24.375 C 41.25 23.339844 42.089844 22.5 43.125 22.5 L 46.875 22.5 C 47.910156 22.5 48.75 23.339844 48.75 24.375 C 48.75 25.410156 47.910156 26.25 46.875 26.25 L 43.125 26.25 C 42.089844 26.25 41.25 25.410156 41.25 24.375 M 41.25 31.875 C 41.25 30.839844 42.089844 30 43.125 30 L 46.875 30 C 47.910156 30 48.75 30.839844 48.75 31.875 C 48.75 32.910156 47.910156 33.75 46.875 33.75 L 43.125 33.75 C 42.089844 33.75 41.25 32.910156 41.25 31.875 M 41.25 39.375 C 41.25 38.339844 42.089844 37.5 43.125 37.5 L 46.875 37.5 C 47.910156 37.5 48.75 38.339844 48.75 39.375 C 48.75 40.410156 47.910156 41.25 46.875 41.25 L 43.125 41.25 C 42.089844 41.25 41.25 40.410156 41.25 39.375 "/>
</g>
</svg>
